<?xml version="1.0" encoding="UTF-8"?>
<svg version="1.1" xmlns="http://www.w3.org/2000/svg" width="140" height="140">
<path d="M0 0 C0 0.66 0 1.32 0 2 C0.66 2 1.32 2 2 2 C2.33 1.01 2.66 0.02 3 -1 C3.721875 -0.814375 4.44375 -0.62875 5.1875 -0.4375 C8.20778598 0.03232226 10.03022023 -0.37841819 13 -1 C20.15641476 -1.63268893 20.15641476 -1.63268893 23 0.5 C23.495 1.2425 23.495 1.2425 24 2 C23.505 0.515 23.505 0.515 23 -1 C27.95 -1 32.9 -1 38 -1 C38.495 0.485 38.495 0.485 39 2 C39.55977539 1.83991455 40.11955078 1.6798291 40.69628906 1.51489258 C55.73796809 -1.84700876 74.63759268 0.45864774 87.9375 8.20703125 C90.85002479 9.32680878 93.57970192 9.27441279 96.6875 9.375 C102.45118693 9.66218255 102.45118693 9.66218255 104.91015625 11.17578125 C107.77638442 14.40968884 108.69796935 17.77157088 109 22 C107.29115995 20.37660195 105.62553283 18.70680947 104 17 C104 16.34 104 15.68 104 15 C102.95199219 14.93941406 101.90398437 14.87882812 100.82421875 14.81640625 C99.44529952 14.73198262 98.06639395 14.64733553 96.6875 14.5625 C95.99720703 14.52318359 95.30691406 14.48386719 94.59570312 14.44335938 C91.52838465 14.25072585 88.93031848 13.97677283 86 13 C86.04125 14.11375 86.0825 15.2275 86.125 16.375 C86 20 86 20 84 22 C81.5 22.25 81.5 22.25 79 22 C77 20 77 20 76.6875 17.0625 C77 14 77 14 78.5 12.125 C78.995 11.75375 79.49 11.3825 80 11 C67.03411473 4.66112276 49.83375319 3.6100095 36 7.6875 C31.05920485 9.4475797 26.31117612 11.58070551 21.6328125 13.94921875 C17.03495361 15.78426926 12.38447432 16.02660921 7.484375 16.140625 C6.32035156 16.16962891 6.32035156 16.16962891 5.1328125 16.19921875 C3.52890645 16.23340035 1.92458066 16.25132704 0.3203125 16.25390625 C-1.89611477 16.32432785 -3.85815317 16.42130941 -6 17 C-7.9769244 19.41653278 -7.9769244 19.41653278 -9 22 C-9.66 22 -10.32 22 -11 22 C-9.25 16.25 -9.25 16.25 -7 14 C-1.02692176 12.51159451 5.12028976 11.95243068 11.25 11.5625 C19.09772396 10.96750916 23.71907863 9.02473709 30 4 C17.79 4 5.58 4 -7 4 C-6.01 4.33 -5.02 4.66 -4 5 C-3.67 5.66 -3.34 6.32 -3 7 C-2.67 6.34 -2.34 5.68 -2 5 C-1.34 5 -0.68 5 0 5 C0.33 6.65 0.66 8.3 1 10 C-1.29141286 10.05384521 -3.58318188 10.09272087 -5.875 10.125 C-7.78925781 10.15980469 -7.78925781 10.15980469 -9.7421875 10.1953125 C-13 10 -13 10 -15 8 C-14.8393678 4.86767215 -14.46432178 3.44831068 -12.1875 1.25 C-8.34013892 -0.94849204 -4.19161705 -2.09580852 0 0 Z M-9 1 C-8 3 -8 3 -8 3 Z M80 14 C80 15.65 80 17.3 80 19 C80.99 19 81.98 19 83 19 C83 17.35 83 15.7 83 14 C82.01 14 81.02 14 80 14 Z " fill="#665D24" transform="translate(21,58)"/>
<path d="M0 0 C0 0.66 0 1.32 0 2 C0.66 2 1.32 2 2 2 C2.33 1.01 2.66 0.02 3 -1 C3.721875 -0.814375 4.44375 -0.62875 5.1875 -0.4375 C8.20778598 0.03232226 10.03022023 -0.37841819 13 -1 C20.15641476 -1.63268893 20.15641476 -1.63268893 23 0.5 C23.495 1.2425 23.495 1.2425 24 2 C23.505 0.515 23.505 0.515 23 -1 C27.95 -1 32.9 -1 38 -1 C38 0.65 38 2.3 38 4 C34.99667187 4.81908949 32.91827209 4.98804577 29.81030273 4.53344727 C25.876459 3.9827041 22.05783316 3.87253562 18.09765625 3.90234375 C17.01380898 3.90446617 17.01380898 3.90446617 15.9080658 3.90663147 C13.62616635 3.91217775 11.34436921 3.9247198 9.0625 3.9375 C7.50455872 3.94252196 5.94661588 3.94708364 4.38867188 3.95117188 C0.59240919 3.9621295 -3.20377813 3.97935628 -7 4 C-6.01 4.33 -5.02 4.66 -4 5 C-3.67 5.66 -3.34 6.32 -3 7 C-2.67 6.34 -2.34 5.68 -2 5 C-1.34 5 -0.68 5 0 5 C0.33 6.65 0.66 8.3 1 10 C-1.29141286 10.05384521 -3.58318188 10.09272087 -5.875 10.125 C-7.78925781 10.15980469 -7.78925781 10.15980469 -9.7421875 10.1953125 C-13 10 -13 10 -15 8 C-14.8393678 4.86767215 -14.46432178 3.44831068 -12.1875 1.25 C-8.34013892 -0.94849204 -4.19161705 -2.09580852 0 0 Z M-9 1 C-8 3 -8 3 -8 3 Z " fill="#AC9D3A" transform="translate(21,58)"/>
<path d="M0 0 C2.625 0.9375 2.625 0.9375 5 2 C5 1.34 5 0.68 5 0 C6.7290774 -0.02725341 8.45828176 -0.04650987 10.1875 -0.0625 C11.15042969 -0.07410156 12.11335938 -0.08570312 13.10546875 -0.09765625 C15.85576513 -0.00486622 18.32479591 0.37888315 21 1 C21 1.99 21 2.98 21 4 C20.34 4 19.68 4 19 4 C19.66 6.31 20.32 8.62 21 11 C18.33333333 11 15.66666667 11 13 11 C13.33 9.02 13.66 7.04 14 5 C13.67 5 13.34 5 13 5 C12.67 7.31 12.34 9.62 12 12 C7.38 12 2.76 12 -2 12 C-2 8.37 -2 4.74 -2 1 C-1.34 0.67 -0.68 0.34 0 0 Z M3 3 C4 5 4 5 4 5 Z " fill="#807022" transform="translate(50,69)"/>
<path d="M0 0 C1.439735 0.14033578 2.88337149 0.24416857 4.328125 0.31640625 C5.52695313 0.37924805 5.52695313 0.37924805 6.75 0.44335938 C7.9875 0.50233398 7.9875 0.50233398 9.25 0.5625 C10.09046875 0.60568359 10.9309375 0.64886719 11.796875 0.69335938 C13.86440671 0.79908543 15.93218281 0.90001295 18 1 C18 1.33 18 1.66 18 2 C16.27716797 2.03867187 16.27716797 2.03867187 14.51953125 2.078125 C1.36637265 2.50448346 -9.52855034 4.95567674 -21.3671875 10.94921875 C-25.96504639 12.78426926 -30.61552568 13.02660921 -35.515625 13.140625 C-36.29164062 13.15996094 -37.06765625 13.17929688 -37.8671875 13.19921875 C-39.47109355 13.23340035 -41.07541934 13.25132704 -42.6796875 13.25390625 C-44.89611477 13.32432785 -46.85815317 13.42130941 -49 14 C-50.9769244 16.41653278 -50.9769244 16.41653278 -52 19 C-52.66 19 -53.32 19 -54 19 C-52.25 13.25 -52.25 13.25 -50 11 C-44.02692176 9.51159451 -37.87971024 8.95243068 -31.75 8.5625 C-25.6349424 8.10686826 -20.84194663 6.74889023 -15.5625 3.5 C-10.47583675 0.52244102 -5.76873048 -1.48161537 0 0 Z " fill="#7A6A1F" transform="translate(64,61)"/>
<path d="M0 0 C0.66 0 1.32 0 2 0 C2.33 2.64 2.66 5.28 3 8 C3.144375 7.4225 3.28875 6.845 3.4375 6.25 C3.95833333 4.16666667 4.47916667 2.08333333 5 0 C8.3 0 11.6 0 15 0 C15 0.99 15 1.98 15 3 C14.34 3 13.68 3 13 3 C13 5.64 13 8.28 13 11 C11.68 10.67 10.36 10.34 9 10 C9.33 7.69 9.66 5.38 10 3 C9.34 3 8.68 3 8 3 C7.855625 4.134375 7.71125 5.26875 7.5625 6.4375 C7 10 7 10 6 11 C3.5625 11.25 3.5625 11.25 1 11 C-1.43769218 7.34346173 -1.23944439 5.30999899 -1 1 C-0.67 0.67 -0.34 0.34 0 0 Z " fill="#807323" transform="translate(83,69)"/>
<path d="M0 0 C0.66 0.66 1.32 1.32 2 2 C-2.89114936 3.18334259 -7.5343619 4.03689044 -12.56640625 4.1796875 C-13.36771973 4.20426025 -14.1690332 4.22883301 -14.99462891 4.25415039 C-16.60982198 4.29273036 -18.22566004 4.31049878 -19.84130859 4.30639648 C-22.40096309 4.31805676 -22.40096309 4.31805676 -26 5 C-27.96428171 7.41660579 -27.96428171 7.41660579 -29 10 C-29.66 10 -30.32 10 -31 10 C-29.25 4.25 -29.25 4.25 -27 2 C-19.11375267 0.03486019 -7.8298026 -2.6099342 0 0 Z " fill="#897922" transform="translate(41,70)"/>
<path d="M0 0 C4.55384615 -0.36923077 4.55384615 -0.36923077 6.8125 1.5 C7.204375 1.995 7.59625 2.49 8 3 C7.67 2.01 7.34 1.02 7 0 C11.95 0 16.9 0 22 0 C22 1.65 22 3.3 22 5 C17.67633038 6.17918262 14.39934636 5.69830895 10 5 C6.00328835 4.62436921 2.00237635 4.30888619 -2 4 C-1.34 3.67 -0.68 3.34 0 3 C0 2.01 0 1.02 0 0 Z " fill="#9F8C27" transform="translate(37,57)"/>
<path d="M0 0 C13.31734414 0.03350275 13.31734414 0.03350275 17.07421875 2.19140625 C19.84824324 5.38195094 20.7049253 8.86895424 21 13 C19.29115995 11.37660195 17.62553283 9.70680947 16 8 C16 7.34 16 6.68 16 6 C14.42798828 5.92652344 14.42798828 5.92652344 12.82421875 5.8515625 C11.44528646 5.77651857 10.0663815 5.70097143 8.6875 5.625 C7.65206055 5.57859375 7.65206055 5.57859375 6.59570312 5.53125 C2.93009211 5.31875081 1.12099208 5.08066139 -2 3 C-1.34 2.01 -0.68 1.02 0 0 Z " fill="#686226" transform="translate(109,67)"/>
<path d="M0 0 C7.59 0 15.18 0 23 0 C23 0.66 23 1.32 23 2 C23.99 2.33 24.98 2.66 26 3 C26 3.33 26 3.66 26 4 C12.14 3.505 12.14 3.505 -2 3 C-1.34 2.67 -0.68 2.34 0 2 C0 1.34 0 0.68 0 0 Z " fill="#4F440D" transform="translate(64,59)"/>
<path d="M0 0 C6.55925943 0.38979206 11.94526627 1.42113193 18 4 C18 4.66 18 5.32 18 6 C12.35348841 8.8232558 2.0268537 5.16031015 -4 4 C-4 3.67 -4 3.34 -4 3 C-2.02 2.67 -0.04 2.34 2 2 C1.34 1.34 0.68 0.68 0 0 Z " fill="#625923" transform="translate(87,60)"/>
<path d="M0 0 C1.64767247 0.28109113 3.29313145 0.57518526 4.9375 0.875 C5.85402344 1.03742187 6.77054688 1.19984375 7.71484375 1.3671875 C8.46894531 1.57601562 9.22304688 1.78484375 10 2 C10.33 2.66 10.66 3.32 11 4 C11.33 3.34 11.66 2.68 12 2 C12.66 2 13.32 2 14 2 C14.33 3.65 14.66 5.3 15 7 C12.70858714 7.05384521 10.41681812 7.09272087 8.125 7.125 C6.21074219 7.15980469 6.21074219 7.15980469 4.2578125 7.1953125 C1 7 1 7 -1 5 C-0.625 2.375 -0.625 2.375 0 0 Z " fill="#A29638" transform="translate(7,61)"/>
<path d="M0 0 C1.32 0.33 2.64 0.66 4 1 C4.66 4.3 5.32 7.6 6 11 C5.01 11 4.02 11 3 11 C3 10.34 3 9.68 3 9 C2.01 9.66 1.02 10.32 0 11 C-0.99 10.67 -1.98 10.34 -3 10 C-2.01 6.7 -1.02 3.4 0 0 Z " fill="#99832E" transform="translate(76,69)"/>
<path d="M0 0 C0 0.99 0 1.98 0 3 C-0.66 3 -1.32 3 -2 3 C-1.34 5.31 -0.68 7.62 0 10 C-2.66666667 10 -5.33333333 10 -8 10 C-7.67 6.7 -7.34 3.4 -7 0 C-3 -1 -3 -1 0 0 Z " fill="#8C7622" transform="translate(71,70)"/>
<path d="M0 0 C2.31 0 4.62 0 7 0 C6 2 6 2 4 3 C3.53348793 5.12576782 3.53348793 5.12576782 3.375 7.5625 C3.30023438 8.38878906 3.22546875 9.21507813 3.1484375 10.06640625 C3.09945312 10.70449219 3.05046875 11.34257813 3 12 C1.02 12 -0.96 12 -3 12 C-2.34 11.67 -1.68 11.34 -1 11 C-1.020625 9.9275 -1.04125 8.855 -1.0625 7.75 C-1.0142016 4.85209576 -0.86844115 2.71387859 0 0 Z " fill="#D2B940" transform="translate(59,69)"/>
<path d="M0 0 C1.134375 0.020625 2.26875 0.04125 3.4375 0.0625 C3.4375 1.0525 3.4375 2.0425 3.4375 3.0625 C2.7775 3.0625 2.1175 3.0625 1.4375 3.0625 C1.4375 5.7025 1.4375 8.3425 1.4375 11.0625 C0.1175 10.7325 -1.2025 10.4025 -2.5625 10.0625 C-2.2325 7.7525 -1.9025 5.4425 -1.5625 3.0625 C-2.2225 3.0625 -2.8825 3.0625 -3.5625 3.0625 C-3.8925 4.0525 -4.2225 5.0425 -4.5625 6.0625 C-4.605221 4.39638095 -4.60313832 2.72867115 -4.5625 1.0625 C-3.5625 0.0625 -3.5625 0.0625 0 0 Z " fill="#AE9C40" transform="translate(94.5625,68.9375)"/>
<path d="M0 0 C1.98 0.66 3.96 1.32 6 2 C6.38063221 4.3260857 6.71269945 6.66055264 7 9 C6 10 6 10 3.5625 10.1875 C1 10 1 10 -1 8 C-1.33333333 2.66666667 -1.33333333 2.66666667 0 0 Z M2 2 C2 3.65 2 5.3 2 7 C2.99 7 3.98 7 5 7 C5 5.35 5 3.7 5 2 C4.01 2 3.02 2 2 2 Z " fill="#726728" transform="translate(99,70)"/>
<path d="M0 0 C1.75 1.5 1.75 1.5 3 3 C-0.06246747 4.78409802 -2.22079273 5.22880021 -5.75 5.125 C-6.54921875 5.10695313 -7.3484375 5.08890625 -8.171875 5.0703125 C-8.77515625 5.04710937 -9.3784375 5.02390625 -10 5 C-10 4.01 -10 3.02 -10 2 C-6.38026598 0.68373308 -3.90432869 0 0 0 Z M-7 2 C-6 4 -6 4 -6 4 Z " fill="#9C9038" transform="translate(19,57)"/>
<path d="M0 0 C0.78552246 0.05236816 1.57104492 0.10473633 2.38037109 0.15869141 C3.65654297 0.23603516 3.65654297 0.23603516 4.95849609 0.31494141 C5.84794922 0.37939453 6.73740234 0.44384766 7.65380859 0.51025391 C8.99958984 0.59533203 8.99958984 0.59533203 10.37255859 0.68212891 C12.59209484 0.82380143 14.81053262 0.9752243 17.02880859 1.13525391 C17.02880859 1.46525391 17.02880859 1.79525391 17.02880859 2.13525391 C15.76423828 2.14943359 14.49966797 2.16361328 13.19677734 2.17822266 C11.53658447 2.22512076 9.87642933 2.27336816 8.21630859 2.32275391 C6.96624023 2.33145508 6.96624023 2.33145508 5.69091797 2.34033203 C3.36446923 2.42442054 1.28170609 2.54334747 -0.97119141 3.13525391 C-2.97915514 5.54726378 -2.97915514 5.54726378 -3.97119141 8.13525391 C-4.63119141 8.13525391 -5.29119141 8.13525391 -5.97119141 8.13525391 C-3.56979225 0.2449424 -3.56979225 0.2449424 0 0 Z " fill="#BEB345" transform="translate(15.97119140625,71.86474609375)"/>
<path d="M0 0 C0 0.99 0 1.98 0 3 C-4.22949995 5.41685712 -7.12335991 6.34833144 -12 6 C-4.6 0 -4.6 0 0 0 Z " fill="#675816" transform="translate(51,65)"/>
<path d="M0 0 C5.84615385 5.53846154 5.84615385 5.53846154 7 9 C6.67 9.99 6.34 10.98 6 12 C2 7.25 2 7.25 2 5 C1.01 4.67 0.02 4.34 -1 4 C-0.67 2.68 -0.34 1.36 0 0 Z " fill="#978D2F" transform="translate(123,68)"/>
<path d="M0 0 C0 3 0 3 -1.375 4.6875 C-3 6 -3 6 -5 6 C-5 5.34 -5 4.68 -5 4 C-5.66 4 -6.32 4 -7 4 C-6.6875 2.0625 -6.6875 2.0625 -6 0 C-3 -1 -3 -1 0 0 Z " fill="#7F671C" transform="translate(71,70)"/>
<path d="M0 0 C2 3 2 3 2 6 C0.68 6 -0.64 6 -2 6 C-2 6.99 -2 7.98 -2 9 C-2.99 8.67 -3.98 8.34 -5 8 C-4.67 6.68 -4.34 5.36 -4 4 C-3.34 4 -2.68 4 -2 4 C-1.67 3.01 -1.34 2.02 -1 1 C-0.67 0.67 -0.34 0.34 0 0 Z " fill="#5C470E" transform="translate(78,71)"/>
<path d="M0 0 C0.66 0 1.32 0 2 0 C3.125 7.75 3.125 7.75 2 10 C1.01 10 0.02 10 -1 10 C-1.02689216 8.52093108 -1.04634621 7.04172517 -1.0625 5.5625 C-1.07410156 4.73878906 -1.08570312 3.91507812 -1.09765625 3.06640625 C-1 1 -1 1 0 0 Z " fill="#776D15" transform="translate(88,69)"/>
<path d="M0 0 C0.99 0 1.98 0 3 0 C3 3.63 3 7.26 3 11 C2.67 11 2.34 11 2 11 C1.67 9.02 1.34 7.04 1 5 C0.34 5.66 -0.32 6.32 -1 7 C-1.33 5.35 -1.66 3.7 -2 2 C-1.34 2 -0.68 2 0 2 C0 1.34 0 0.68 0 0 Z " fill="#6A5912" transform="translate(55,69)"/>
<path d="M0 0 C0.66 0 1.32 0 2 0 C3.28571429 7.42857143 3.28571429 7.42857143 2 11 C1.34 11 0.68 11 0 11 C0 7.37 0 3.74 0 0 Z " fill="#726117" transform="translate(60,70)"/>
<path d="M0 0 C0 2.31 0 4.62 0 7 C-1.65 7.33 -3.3 7.66 -5 8 C-5 7.34 -5 6.68 -5 6 C-4.34 6 -3.68 6 -3 6 C-3.33 4.35 -3.66 2.7 -4 1 C-1 0 -1 0 0 0 Z " fill="#A59532" transform="translate(57,73)"/>
<path d="M0 0 C2.31 0 4.62 0 7 0 C7 0.66 7 1.32 7 2 C6.01 2 5.02 2 4 2 C4 4.64 4 7.28 4 10 C3.67 10 3.34 10 3 10 C3 7.36 3 4.72 3 2 C2.01 2 1.02 2 0 2 C0 1.34 0 0.68 0 0 Z " fill="#655513" transform="translate(91,69)"/>
<path d="M0 0 C0.66 0 1.32 0 2 0 C2 1.65 2 3.3 2 5 C-0.375 5.625 -0.375 5.625 -3 6 C-3.66 5.34 -4.32 4.68 -5 4 C-3.35 3.34 -1.7 2.68 0 2 C0 1.34 0 0.68 0 0 Z " fill="#B29D36" transform="translate(57,57)"/>
<path d="M0 0 C1.65 0.33 3.3 0.66 5 1 C4.01 1.33 3.02 1.66 2 2 C2 3.65 2 5.3 2 7 C1.01 7.33 0.02 7.66 -1 8 C-1.125 2.25 -1.125 2.25 0 0 Z " fill="#8C7F36" transform="translate(99,70)"/>
<path d="M0 0 C3.3 0.66 6.6 1.32 10 2 C10 2.33 10 2.66 10 3 C8.35 3 6.7 3 5 3 C4.67 3.66 4.34 4.32 4 5 C1.525 4.01 1.525 4.01 -1 3 C-0.67 2.01 -0.34 1.02 0 0 Z " fill="#CBC45A" transform="translate(7,61)"/>
<path d="" fill="#847711" transform="translate(0,0)"/>
<path d="" fill="#ADA42E" transform="translate(0,0)"/>
</svg>
